<?xml version="1.0" encoding="UTF-8"?>
<svg version="1.1" xmlns="http://www.w3.org/2000/svg" width="512" height="512">
<path d="M0 0 C7.07361824 4.46590467 12.31652362 10.24773974 14.4375 18.4375 C15.08446372 24.76109549 14.81237705 31.15696421 14.6875 37.5 C14.605 43.419375 14.5225 49.33875 14.4375 55.4375 C32.9175 55.4375 51.3975 55.4375 70.4375 55.4375 C70.2405983 43.71058395 70.2405983 43.71058395 69.98706055 31.98486328 C69.83475029 21.38254202 70.78975752 13.91945266 77.875 5.5625 C86.7828921 -1.82453247 94.33225228 -2.34948606 105.4375 -1.5625 C113.51197671 0.6223584 118.19858708 6.70078721 122.421875 13.5703125 C124.78143433 17.90827157 124.56645513 22.0305605 124.53515625 26.82421875 C124.53414917 27.54855103 124.53314209 28.2728833 124.53210449 29.01916504 C124.52687826 31.72112616 124.51291698 34.4230647 124.5 37.125 C124.479375 43.168125 124.45875 49.21125 124.4375 55.4375 C142.9175 55.4375 161.3975 55.4375 180.4375 55.4375 C180.2405983 43.71058395 180.2405983 43.71058395 179.98706055 31.98486328 C179.83475029 21.38254202 180.78975752 13.91945266 187.875 5.5625 C196.7828921 -1.82453247 204.33225228 -2.34948606 215.4375 -1.5625 C220.99420934 -0.05891983 224.66323212 3.13902825 228.4375 7.4375 C229.159375 8.241875 229.88125 9.04625 230.625 9.875 C234.50124425 15.35520739 234.71850078 20.65595704 234.6328125 27.1171875 C234.62856766 28.33633347 234.62856766 28.33633347 234.62423706 29.58010864 C234.61310619 32.15772675 234.58801515 34.73498819 234.5625 37.3125 C234.55246101 39.06770329 234.54333677 40.82291206 234.53515625 42.578125 C234.51319015 46.86471926 234.47870978 51.1510493 234.4375 55.4375 C235.59685059 55.42178955 236.75620117 55.4060791 237.95068359 55.38989258 C242.29305954 55.33518257 246.63540564 55.30100192 250.97802734 55.27270508 C252.84982443 55.25771135 254.72158694 55.2373095 256.59326172 55.21118164 C281.4719155 54.87283195 281.4719155 54.87283195 289.3125 62.0625 C290.01117188 62.67351562 290.70984375 63.28453125 291.4296875 63.9140625 C297.53963502 71.5931016 298.01624393 79.20757573 297.9521637 88.75520325 C297.95749619 90.09243826 297.96456591 91.42966728 297.97321075 92.76688498 C297.99177077 96.42166688 297.98555646 100.07604175 297.97505772 103.73084009 C297.96804713 107.67970605 297.98407728 111.62848996 297.99705505 115.57733154 C298.01866564 123.30386108 298.01857634 131.03024318 298.01042951 138.756793 C298.00412519 145.03468623 298.00527048 151.31253652 298.01170158 157.59042931 C298.01260324 158.48449669 298.01350489 159.37856407 298.01443387 160.2997244 C298.01628508 162.11603868 298.01814764 163.93235295 298.02002143 165.7486672 C298.03658816 182.76773813 298.02788867 199.78672607 298.01103585 216.805792 C297.99632397 232.38368553 298.01099019 247.96138644 298.03980602 263.53925518 C298.06917659 279.53603602 298.08018016 295.53272789 298.07062382 311.52953452 C298.06960125 313.33757284 298.06860665 315.14561117 298.0676403 316.95364952 C298.06716391 317.8432394 298.06668752 318.73282928 298.0661967 319.64937643 C298.06403034 325.92341322 298.07384784 332.19736592 298.08841133 338.47138405 C298.10589923 346.11165993 298.10586775 353.75168977 298.08305968 361.39195583 C298.07188781 365.29130279 298.06882118 369.19021567 298.08736038 373.0895443 C298.10717653 377.31162811 298.08844877 381.53264643 298.06568909 385.75471497 C298.07752482 386.99370082 298.08936054 388.23268668 298.10155493 389.50921756 C298.01049557 397.77469291 298.01049557 397.77469291 295.02323818 401.23017406 C292.4375 402.4375 292.4375 402.4375 290.4375 402.4375 C290.4375 408.7075 290.4375 414.9775 290.4375 421.4375 C292.0875 421.7675 293.7375 422.0975 295.4375 422.4375 C297.79259397 425.97014096 297.70465616 427.48958958 297.74389648 431.67797852 C297.75988388 432.96684464 297.77587128 434.25571075 297.79234314 435.58363342 C297.79872321 436.99455367 297.80411489 438.40547868 297.80859375 439.81640625 C297.81756557 441.26789948 297.82668751 442.71939179 297.83595276 444.17088318 C297.85245133 447.21819297 297.86014337 450.26539287 297.86303711 453.31274414 C297.86839608 457.19415522 297.90596681 461.07451315 297.95178127 464.9556284 C297.98172652 467.95763275 297.98876454 470.95939006 297.98976326 473.96153069 C297.99393766 475.39072385 298.00625888 476.81991967 298.02728081 478.24896431 C298.15775311 487.89293932 297.45871604 495.9945362 290.68186951 503.34059143 C282.69347518 510.90987111 274.4296823 510.87446403 263.92008972 510.83190918 C262.42799286 510.83680072 260.93589979 510.84299174 259.44381315 510.85036707 C255.35150789 510.86675657 251.25939542 510.86445069 247.16706884 510.8589921 C242.75043909 510.85632067 238.33386058 510.87085587 233.91725159 510.88308716 C225.26736597 510.90413886 216.61754738 510.90868215 207.96763917 510.90689927 C200.93603718 510.90559146 193.9044561 510.90939675 186.87285805 510.91682434 C184.84712341 510.91892355 182.82138876 510.92102115 180.79565412 510.92311716 C179.28323216 510.92468245 179.28323216 510.92468245 177.74025623 510.92627937 C158.67182142 510.94518084 139.60342509 510.94413188 120.5349848 510.93731004 C103.09543668 510.93173519 85.65603549 510.95255773 68.2165217 510.98567051 C50.3055426 511.01941424 32.39463386 511.03457495 14.48362237 511.02995348 C4.42961653 511.02770941 -5.62425352 511.03294276 -15.67823219 511.05784607 C-24.23806966 511.07886803 -32.7976969 511.08244232 -41.35754303 511.06354648 C-45.72342082 511.054394 -50.08890671 511.05323049 -54.45475388 511.07390213 C-58.45524177 511.09263406 -62.45501742 511.08808437 -66.45547839 511.06535631 C-67.898911 511.06117609 -69.34239844 511.06535124 -70.78577302 511.07895225 C-80.26812255 511.1621855 -88.24679585 510.33650603 -95.4671939 503.68211508 C-102.84585107 495.88557485 -102.99775695 488.00446727 -102.95018005 477.71492004 C-102.95435556 476.30929298 -102.95983427 474.90366928 -102.96649987 473.49805182 C-102.98094408 469.64498718 -102.97671306 465.79213664 -102.96933305 461.93906033 C-102.96460133 457.78022007 -102.97711103 453.62142611 -102.98735046 449.46260071 C-103.00454172 441.32005492 -103.00537807 433.17758629 -103.00013756 425.03502706 C-102.99609647 418.4190871 -102.99753868 411.80316994 -103.00288582 405.18723106 C-103.00363424 404.24571156 -103.00438266 403.30419206 -103.00515376 402.33414167 C-103.00668522 400.42151533 -103.00822357 398.50888899 -103.00976873 396.59626266 C-103.02349409 378.66396491 -103.01805505 360.73171081 -103.00658352 342.79941406 C-102.99664348 326.38400736 -103.00960505 309.96871324 -103.03351771 293.5533239 C-103.05788036 276.70232632 -103.06752404 259.85138124 -103.06086498 243.00036639 C-103.05736743 233.53790332 -103.05964052 224.07552694 -103.07711601 214.61307716 C-103.09180226 206.56106255 -103.09252009 198.50919572 -103.0750451 190.45718411 C-103.06650451 186.34728152 -103.06445981 182.23764334 -103.07969666 178.12775421 C-103.09346257 174.36820766 -103.08888629 170.60915407 -103.06945742 166.84963664 C-103.0638739 164.83976697 -103.07803585 162.8298727 -103.09281152 160.82004958 C-103.08299723 159.63204779 -103.07318294 158.44404599 -103.06307125 157.22004414 C-103.06296391 156.19251823 -103.06285658 155.16499232 -103.06274599 154.10632926 C-102.42712454 150.71526735 -101.28135531 149.50366375 -98.5625 147.4375 C-97.5725 147.4375 -96.5825 147.4375 -95.5625 147.4375 C-95.5625 141.1675 -95.5625 134.8975 -95.5625 128.4375 C-97.2125 127.7775 -98.8625 127.1175 -100.5625 126.4375 C-103.02441922 123.97558078 -102.82576083 123.25988649 -102.86889648 119.87109375 C-102.88488388 118.92250488 -102.90087128 117.97391602 -102.91734314 116.99658203 C-102.92270584 115.96645996 -102.92806854 114.93633789 -102.93359375 113.875 C-102.94262222 112.81394043 -102.9516507 111.75288086 -102.96095276 110.65966797 C-102.97548794 108.40676708 -102.98435006 106.15382367 -102.98803711 103.90087891 C-102.99985753 100.47874795 -103.04894796 97.05846471 -103.09960938 93.63671875 C-103.10908236 91.44532127 -103.1163132 89.25391274 -103.12109375 87.0625 C-103.14062607 86.04857178 -103.16015839 85.03464355 -103.18028259 83.98999023 C-103.12351914 74.89504556 -100.33645178 67.96239057 -93.875 61.5 C-84.60571932 53.13503939 -70.46562748 55.08907179 -58.9375 55.25 C-57.05600027 55.26507144 -55.1744889 55.2787555 -53.29296875 55.29101562 C-48.7158547 55.32383247 -44.13930769 55.37547933 -39.5625 55.4375 C-39.58868408 54.36902832 -39.61486816 53.30055664 -39.6418457 52.19970703 C-39.73311473 48.19292575 -39.79002418 44.18623412 -39.8371582 40.17871094 C-39.86212938 38.4523162 -39.89611907 36.72602529 -39.93969727 35 C-40.22571884 23.37069908 -39.96953052 14.81502317 -32.125 5.5625 C-23.46616394 -1.61799819 -10.86164824 -5.02297567 0 0 Z " fill="#D7EBFD" transform="translate(158.5625,1.5625)"/>
<path d="M0 0 C7.07361824 4.46590467 12.31652362 10.24773974 14.4375 18.4375 C15.08446372 24.76109549 14.81237705 31.15696421 14.6875 37.5 C14.605 43.419375 14.5225 49.33875 14.4375 55.4375 C32.9175 55.4375 51.3975 55.4375 70.4375 55.4375 C70.2405983 43.71058395 70.2405983 43.71058395 69.98706055 31.98486328 C69.83475029 21.38254202 70.78975752 13.91945266 77.875 5.5625 C86.7828921 -1.82453247 94.33225228 -2.34948606 105.4375 -1.5625 C113.51197671 0.6223584 118.19858708 6.70078721 122.421875 13.5703125 C124.78143433 17.90827157 124.56645513 22.0305605 124.53515625 26.82421875 C124.53414917 27.54855103 124.53314209 28.2728833 124.53210449 29.01916504 C124.52687826 31.72112616 124.51291698 34.4230647 124.5 37.125 C124.479375 43.168125 124.45875 49.21125 124.4375 55.4375 C142.9175 55.4375 161.3975 55.4375 180.4375 55.4375 C180.2405983 43.71058395 180.2405983 43.71058395 179.98706055 31.98486328 C179.83475029 21.38254202 180.78975752 13.91945266 187.875 5.5625 C196.7828921 -1.82453247 204.33225228 -2.34948606 215.4375 -1.5625 C220.99420934 -0.05891983 224.66323212 3.13902825 228.4375 7.4375 C229.159375 8.241875 229.88125 9.04625 230.625 9.875 C234.50124425 15.35520739 234.71850078 20.65595704 234.6328125 27.1171875 C234.62856766 28.33633347 234.62856766 28.33633347 234.62423706 29.58010864 C234.61310619 32.15772675 234.58801515 34.73498819 234.5625 37.3125 C234.55246101 39.06770329 234.54333677 40.82291206 234.53515625 42.578125 C234.51319015 46.86471926 234.47870978 51.1510493 234.4375 55.4375 C235.59685059 55.42178955 236.75620117 55.4060791 237.95068359 55.38989258 C242.29305954 55.33518257 246.63540564 55.30100192 250.97802734 55.27270508 C252.84982443 55.25771135 254.72158694 55.2373095 256.59326172 55.21118164 C281.4719155 54.87283195 281.4719155 54.87283195 289.3125 62.0625 C290.01117188 62.67351562 290.70984375 63.28453125 291.4296875 63.9140625 C297.53963502 71.5931016 298.01624393 79.20757573 297.9521637 88.75520325 C297.95749619 90.09243826 297.96456591 91.42966728 297.97321075 92.76688498 C297.99177077 96.42166688 297.98555646 100.07604175 297.97505772 103.73084009 C297.96804713 107.67970605 297.98407728 111.62848996 297.99705505 115.57733154 C298.01866564 123.30386108 298.01857634 131.03024318 298.01042951 138.756793 C298.00412519 145.03468623 298.00527048 151.31253652 298.01170158 157.59042931 C298.01260324 158.48449669 298.01350489 159.37856407 298.01443387 160.2997244 C298.01628508 162.11603868 298.01814764 163.93235295 298.02002143 165.7486672 C298.03658816 182.76773813 298.02788867 199.78672607 298.01103585 216.805792 C297.99632397 232.38368553 298.01099019 247.96138644 298.03980602 263.53925518 C298.06917659 279.53603602 298.08018016 295.53272789 298.07062382 311.52953452 C298.06960125 313.33757284 298.06860665 315.14561117 298.0676403 316.95364952 C298.06716391 317.8432394 298.06668752 318.73282928 298.0661967 319.64937643 C298.06403034 325.92341322 298.07384784 332.19736592 298.08841133 338.47138405 C298.10589923 346.11165993 298.10586775 353.75168977 298.08305968 361.39195583 C298.07188781 365.29130279 298.06882118 369.19021567 298.08736038 373.0895443 C298.10717653 377.31162811 298.08844877 381.53264643 298.06568909 385.75471497 C298.07752482 386.99370082 298.08936054 388.23268668 298.10155493 389.50921756 C298.01090707 397.73734066 298.01090707 397.73734066 295.12480068 401.26142406 C292.4375 402.4375 292.4375 402.4375 288.8125 401.9375 C285.28786308 400.3709947 284.32888421 399.67325928 282.4375 396.4375 C282.06194448 393.91384608 282.06194448 393.91384608 282.06111908 391.00856876 C282.05351264 389.89945167 282.04590619 388.79033457 282.03806925 387.64760786 C282.04496318 386.42923922 282.05185712 385.21087057 282.05895996 383.95558167 C282.05442983 382.6612057 282.0498997 381.36682973 282.0452323 380.03323025 C282.03299935 376.43754339 282.0393963 372.84209168 282.04873729 369.24640501 C282.05552383 365.36970693 282.04500616 361.49305266 282.03645325 357.61636353 C282.02387674 350.89765673 282.02191717 344.17901429 282.02680969 337.46029854 C282.03361045 327.74068512 282.02111334 318.02116896 282.00330251 308.30157291 C281.97464063 292.52551576 281.95713637 276.74946909 281.94873047 260.97338867 C281.94822329 260.02893735 281.94771611 259.08448602 281.94719356 258.11141496 C281.9436664 251.40761011 281.9405371 244.70380509 281.9375 238 C281.93403128 230.34399399 281.9303822 222.68798812 281.92626953 215.03198242 C281.92551561 213.61748289 281.92551561 213.61748289 281.92474645 212.17440761 C281.91600693 196.45915427 281.89557975 180.74393701 281.86678743 165.02870792 C281.84959163 155.33191358 281.8430297 145.63522121 281.85009348 135.93841361 C281.85426783 129.29595938 281.84793918 122.65356952 281.83329475 116.01113028 C281.825224 112.17660003 281.82214704 108.34222929 281.83211708 104.50769997 C281.84282754 100.35380119 281.83056055 96.20028899 281.81604004 92.04640198 C281.82293397 90.83026405 281.82982791 89.61412613 281.83693075 88.36113554 C281.82932431 87.2494107 281.82171786 86.13768585 281.81388092 84.99227238 C281.81360854 84.03336851 281.81333615 83.07446465 281.81305552 82.08650309 C281.36337565 78.91465948 280.29023392 77.02866336 278.4375 74.4375 C275.72368344 72.61963347 273.54350568 72.1800191 270.31152344 72.11865234 C269.51099548 72.09878265 268.71046753 72.07891296 267.88568115 72.05844116 C267.03137512 72.04688995 266.17706909 72.03533875 265.296875 72.0234375 C264.41469299 72.00407135 263.53251099 71.9847052 262.62359619 71.9647522 C259.81166184 71.90507152 256.9996863 71.85861717 254.1875 71.8125 C252.27862819 71.77430962 250.36977341 71.73525727 248.4609375 71.6953125 C243.78659704 71.59937942 239.11217591 71.51530584 234.4375 71.4375 C234.45562744 72.60595459 234.47375488 73.77440918 234.49243164 74.97827148 C234.50709253 76.52587499 234.52131074 78.07348273 234.53515625 79.62109375 C234.54824829 80.38949585 234.56134033 81.15789795 234.5748291 81.94958496 C234.63595957 91.06291567 231.59885774 97.11668715 225.32421875 103.70703125 C219.30411156 109.22857884 213.40704787 110.05906369 205.37573242 109.97875977 C197.45943246 109.61407733 192.47139323 106.85071653 187.125 101.1875 C186.19150175 99.96537137 185.29475646 98.71426494 184.4375 97.4375 C184.02371094 96.82648438 183.60992187 96.21546875 183.18359375 95.5859375 C178.71081741 87.51312167 180.4375 81.51510643 180.4375 71.4375 C161.9575 71.4375 143.4775 71.4375 124.4375 71.4375 C124.4375 77.0475 124.4375 82.6575 124.4375 88.4375 C120.88353986 97.71246915 117.13198831 103.05665215 108.70703125 108.05859375 C104.93953174 109.64751529 101.65185889 109.9758191 97.625 109.9375 C96.56551147 109.92783203 96.56551147 109.92783203 95.48461914 109.91796875 C87.06400494 109.6239002 82.23681482 106.58126835 76.5625 100.625 C68.94957419 91.05143669 70.4375 84.65207817 70.4375 71.4375 C51.9575 71.4375 33.4775 71.4375 14.4375 71.4375 C14.4375 77.0475 14.4375 82.6575 14.4375 88.4375 C10.88353986 97.71246915 7.13198831 103.05665215 -1.29296875 108.05859375 C-5.06046826 109.64751529 -8.34814111 109.9758191 -12.375 109.9375 C-13.43448853 109.92783203 -13.43448853 109.92783203 -14.51538086 109.91796875 C-22.93599506 109.6239002 -27.76318518 106.58126835 -33.4375 100.625 C-38.96813118 93.67000672 -39.72768294 88.22446234 -39.62890625 79.65234375 C-39.62411255 78.86210815 -39.61931885 78.07187256 -39.61437988 77.25769043 C-39.60191985 75.31758989 -39.58286536 73.37753366 -39.5625 71.4375 C-45.31066822 71.45692592 -51.05730669 71.50866039 -56.80493164 71.59008789 C-58.75927389 71.61325551 -60.71374077 71.62766071 -62.66821289 71.63305664 C-65.48142043 71.64235532 -68.29267112 71.68336475 -71.10546875 71.73046875 C-71.97648727 71.7265361 -72.8475058 71.72260345 -73.74491882 71.71855164 C-78.23715773 71.82610114 -79.99864022 71.97545771 -83.59106445 74.91918945 C-84.24163818 75.75023193 -84.89221191 76.58127441 -85.5625 77.4375 C-85.8925 77.7675 -86.2225 78.0975 -86.5625 78.4375 C-86.66374354 79.79229272 -86.69816133 81.15218585 -86.7043457 82.51074219 C-86.71138016 83.37544128 -86.71841461 84.24014038 -86.72566223 85.13104248 C-86.72982651 86.07264221 -86.73399078 87.01424194 -86.73828125 87.984375 C-86.76148524 89.96355223 -86.78560281 91.94271893 -86.81054688 93.921875 C-86.84564218 97.05345643 -86.87498778 100.18465227 -86.88842773 103.31640625 C-86.90391147 106.33120947 -86.94413313 109.34487303 -86.98828125 112.359375 C-86.98637283 113.29287781 -86.98446442 114.22638062 -86.98249817 115.18817139 C-87.06188696 119.41160635 -87.19114102 121.8233162 -89.41479492 125.50097656 C-92.20417795 128.01608241 -93.81182106 128.51404447 -97.5625 128.4375 C-100.21240234 127.10595703 -100.21240234 127.10595703 -102.5625 124.4375 C-103.32895682 120.85960499 -103.26276341 117.32726285 -103.2265625 113.6796875 C-103.23134613 112.62145782 -103.23612976 111.56322815 -103.24105835 110.47293091 C-103.24446063 108.23193884 -103.23523539 105.99089737 -103.21435547 103.75 C-103.1877555 100.34520351 -103.21401129 96.94375201 -103.24609375 93.5390625 C-103.2427866 91.35676363 -103.23637407 89.17446682 -103.2265625 86.9921875 C-103.23668365 85.98453339 -103.24680481 84.97687927 -103.25723267 83.93869019 C-103.10986368 74.89362424 -100.30558771 67.92904921 -93.875 61.5 C-84.60571932 53.13503939 -70.46562748 55.08907179 -58.9375 55.25 C-57.05600027 55.26507144 -55.1744889 55.2787555 -53.29296875 55.29101562 C-48.7158547 55.32383247 -44.13930769 55.37547933 -39.5625 55.4375 C-39.58868408 54.36902832 -39.61486816 53.30055664 -39.6418457 52.19970703 C-39.73311473 48.19292575 -39.79002418 44.18623412 -39.8371582 40.17871094 C-39.86212938 38.4523162 -39.89611907 36.72602529 -39.93969727 35 C-40.22571884 23.37069908 -39.96953052 14.81502317 -32.125 5.5625 C-23.46616394 -1.61799819 -10.86164824 -5.02297567 0 0 Z " fill="#010101" transform="translate(158.5625,1.5625)"/>
<path d="M0 0 C4.20809884 -0.11656783 8.41577996 -0.18737611 12.625 -0.25 C14.40970703 -0.30027344 14.40970703 -0.30027344 16.23046875 -0.3515625 C27.41391766 -0.47651724 27.41391766 -0.47651724 32 4 C34.00553122 7.20278783 34.25078563 9.68425442 34.25333309 13.43172455 C34.25894849 14.54145834 34.26456388 15.65119214 34.27034944 16.79455423 C34.26636835 18.013605 34.26238726 19.23265576 34.25828552 20.48864746 C34.26196123 21.783729 34.26563693 23.07881053 34.26942402 24.41313696 C34.27941771 28.01070599 34.27702823 31.60817766 34.27269709 35.20575404 C34.27022356 39.08447216 34.27928562 42.96316451 34.28707886 46.84187317 C34.29913033 53.56384216 34.30423212 60.28578743 34.30496025 67.00776672 C34.30628482 76.7310164 34.3213868 86.45420839 34.34045542 96.17743772 C34.37130617 111.95796568 34.39546812 127.73849509 34.41333008 143.51904297 C34.41440276 144.4637566 34.41547544 145.40847024 34.41658062 146.38181156 C34.42840341 156.92431922 34.43860842 167.46682746 34.44702148 178.00933838 C34.45009542 181.83321128 34.4531842 185.65708416 34.45629883 189.48095703 C34.45706417 190.42452212 34.45782951 191.36808721 34.45861804 192.34024519 C34.47168965 208.06114787 34.4963147 223.7820088 34.53004223 239.50288057 C34.55035637 249.20427727 34.56061831 258.90558473 34.55805302 268.60700285 C34.55701965 275.25132403 34.5666275 281.89557457 34.58469205 288.5398711 C34.59475816 292.37629846 34.59984264 296.21256958 34.59192467 300.04900551 C34.58345245 304.20326324 34.5979363 308.35712032 34.61473083 312.51135254 C34.60541311 314.33992869 34.60541311 314.33992869 34.59590715 316.20544577 C34.60413029 317.31517956 34.61235344 318.42491336 34.62082577 319.56827545 C34.62164022 320.52755904 34.62245468 321.48684262 34.62329382 322.47519541 C35.07476288 325.50108459 35.84226956 326.84637477 38 329 C39.32 329.33 40.64 329.66 42 330 C42 336.93 42 343.86 42 351 C40.02 351.66 38.04 352.32 36 353 C34.67450211 355.65099577 34.86076784 357.6709003 34.84228516 360.63964844 C34.82689194 362.4122403 34.82689194 362.4122403 34.81118774 364.22064209 C34.80388641 365.50392395 34.79658508 366.78720581 34.7890625 368.109375 C34.76818127 370.11818937 34.74728262 372.12700373 34.72536278 374.13580704 C34.67218676 379.09795618 34.62804542 384.0601132 34.59863281 389.02246094 C34.58170825 391.80305847 34.55698724 394.58337996 34.52377319 397.36383057 C34.49281807 399.98363049 34.47338861 402.60359751 34.46670532 405.22357178 C34.45013885 406.41790833 34.43357239 407.61224487 34.41650391 408.84277344 C34.40437363 410.41257965 34.40437363 410.41257965 34.39199829 412.01409912 C33.78724472 416.62058403 32.29572584 419.98678487 28.6171875 422.86328125 C23.13463405 424.58620031 17.83156209 424.31309589 12.125 424.1875 C10.9596875 424.17396484 9.794375 424.16042969 8.59375 424.14648438 C5.72868882 424.11125821 2.86458623 424.06199715 0 424 C0.32480905 422.99442614 0.64961811 421.98885227 0.98426986 420.95280647 C2.05795969 417.17411562 2.25064959 413.69569872 2.25168228 409.75509644 C2.25458916 409.05688349 2.25749604 408.35867054 2.26049101 407.63929963 C2.26777377 405.30615651 2.2608558 402.9732778 2.25396729 400.64013672 C2.2562724 398.94791467 2.25944926 397.25569361 2.26342177 395.56347466 C2.27177145 390.91813188 2.26764369 386.27287127 2.26144934 381.62752819 C2.25692658 376.61587657 2.26390774 371.60423914 2.26940918 366.59259033 C2.27830669 356.77663826 2.27637957 346.96071675 2.2705839 337.14476347 C2.26606883 329.16777514 2.26545384 321.19079539 2.26763153 313.21380615 C2.267938 312.07887753 2.26824446 310.94394892 2.26856022 309.77462852 C2.26919966 307.46910937 2.26984809 305.16359023 2.2705054 302.85807109 C2.27620974 281.23453889 2.26964916 259.61102365 2.25890467 237.98749423 C2.24996906 219.42980537 2.25152108 200.87214153 2.26074219 182.31445312 C2.27144297 160.76877747 2.27566041 139.22311668 2.26951766 117.67743874 C2.26888056 115.38035711 2.26825181 113.08327548 2.26763153 110.78619385 C2.2671687 109.09084088 2.2671687 109.09084088 2.26669653 107.36123836 C2.26496901 99.39298259 2.26788591 91.42473624 2.27259064 83.45648193 C2.27819733 73.74707689 2.27668746 64.03770419 2.26602915 54.32830286 C2.26076961 49.37356695 2.25872054 44.41888499 2.26532745 39.46414948 C2.27128312 34.92925495 2.26801807 30.39446441 2.25737235 25.85957932 C2.25513671 24.21835694 2.25627829 22.57712579 2.26112393 20.93590903 C2.26720455 18.70544892 2.26096832 16.47534511 2.25168228 14.24490356 C2.25119522 12.38635837 2.25119522 12.38635837 2.25069833 10.4902668 C1.97699324 6.67969578 1.17004705 3.62233972 0 0 Z " fill="#C3E1FE" transform="translate(407,73)"/>
<path d="M0 0 C1.00353516 0.1546875 1.00353516 0.1546875 2.02734375 0.3125 C2.69894531 0.395 3.37054688 0.4775 4.0625 0.5625 C6.70779652 1.60540951 7.4932491 2.89357057 8.96484375 5.3125 C9.34039927 7.94400775 9.34039927 7.94400775 9.34122467 11.00413322 C9.34883111 12.17185135 9.35643756 13.33956947 9.3642745 14.54267299 C9.35738057 15.82650564 9.35048663 17.11033828 9.34338379 18.43307495 C9.34667388 19.80993801 9.35128702 21.18679844 9.35711145 22.56365311 C9.36934752 26.35123211 9.36294595 30.13858794 9.35360646 33.92616677 C9.34682118 38.00942899 9.35733699 42.09264958 9.3658905 46.17590332 C9.37846843 53.2531087 9.38042607 60.330253 9.37553406 67.40746689 C9.36873352 77.64650444 9.38123015 87.88544967 9.39904124 98.12447073 C9.42770508 114.74459753 9.44520778 131.36471439 9.45361328 147.98486328 C9.45412046 148.97989275 9.45462764 149.97492221 9.45515019 151.00010408 C9.4586772 158.06256926 9.46180644 165.1250346 9.46484375 172.1875 C9.46831223 180.25146499 9.47196141 188.31542984 9.47607422 196.37939453 C9.47657683 197.37260774 9.47707945 198.36582095 9.4775973 199.38913153 C9.48633826 215.94398789 9.50676877 232.49881001 9.53555632 249.05364335 C9.55274837 259.26788777 9.55931572 269.48203541 9.55225027 279.69629242 C9.54807441 286.69430497 9.55440948 293.69225646 9.569049 300.69025479 C9.57711604 304.72945814 9.58020291 308.76851011 9.57022667 312.80771255 C9.56117076 316.50511379 9.56584531 320.20223347 9.5814411 323.89961053 C9.58614483 325.87135538 9.57603769 327.84311836 9.565413 329.8148402 C9.47825666 338.04595347 9.47825666 338.04595347 12.96484375 345.3125 C16.28794884 347.47310892 19.03999108 347.56379836 22.95320702 347.56697559 C24.80406097 347.57572388 24.80406097 347.57572388 26.69230592 347.58464891 C28.06378184 347.58101561 29.43525726 347.57719123 30.80673218 347.57319641 C32.26196477 347.57621606 33.71719577 347.58010461 35.17242396 347.58478898 C39.17658567 347.59510186 43.18065818 347.59287881 47.18482733 347.58860838 C51.50121377 347.5861471 55.81757839 347.5951479 60.13395691 347.60264587 C68.59240209 347.61541176 77.05081555 347.6171842 85.50926875 347.61484561 C92.38317277 347.61306433 99.25706714 347.61480801 106.13097 347.61907005 C107.10839822 347.61966524 108.08582644 347.62026043 109.0928737 347.62087366 C111.07837418 347.62208538 113.06387466 347.62329951 115.04937513 347.62451603 C133.68035928 347.63539894 152.31132535 347.63322558 170.94231053 347.62713119 C187.99348917 347.62196187 205.04461069 347.63321654 222.09577803 347.65222941 C239.59531109 347.67159293 257.0948171 347.67986639 274.59436095 347.67610615 C284.42244764 347.67419179 294.25048572 347.67670453 304.07856369 347.69082069 C312.44567649 347.70271659 320.81271074 347.70415959 329.17982458 347.69203053 C333.44990863 347.6861291 337.71984888 347.68507717 341.98992348 347.69703293 C345.89826342 347.7078488 349.80633875 347.70483989 353.71466608 347.69077124 C355.12917943 347.68811241 356.54371324 347.69052793 357.95820658 347.69850711 C359.88038097 347.70859819 361.80262983 347.69840918 363.7247982 347.68723011 C364.7926818 347.68728513 365.8605654 347.68734014 366.96080911 347.68739682 C370.50806379 347.24470735 372.91252998 346.1485338 375.96484375 344.3125 C378.09045445 340.69679481 378.21521937 337.43836718 378.22021484 333.30053711 C378.22717377 332.11258041 378.23413269 330.92462372 378.24130249 329.70066833 C378.23980698 327.78956017 378.23980698 327.78956017 378.23828125 325.83984375 C378.25337457 323.83054789 378.2684907 321.82125189 378.28496742 319.8119669 C378.32271953 314.86615156 378.33990615 309.92031308 378.34570312 304.97436523 C378.34974616 302.19436532 378.36429176 299.41478602 378.39004517 296.63490295 C378.41352259 294.01849347 378.42083712 291.4018795 378.41049194 288.78538513 C378.42375519 287.6005806 378.43701843 286.41577606 378.45068359 285.19506836 C378.45353363 284.15313828 378.45638367 283.11120819 378.45932007 282.03770447 C379.09815012 278.59386477 380.22552075 277.43574199 382.96484375 275.3125 C386.46484375 274.3125 386.46484375 274.3125 389.96484375 274.3125 C392.86558343 276.4400291 393.84979017 277.65987818 394.47950745 281.23184204 C394.48570602 282.36528046 394.4919046 283.49871887 394.49829102 284.66650391 C394.51412735 285.95529449 394.52996368 287.24408508 394.54627991 288.57192993 C394.54243614 289.97764446 394.53739582 291.38335615 394.53125 292.7890625 C394.53648911 294.23912962 394.54276664 295.68919333 394.55003357 297.13925171 C394.56044148 300.18072518 394.55587682 303.22173104 394.54125977 306.26318359 C394.52415649 310.13682334 394.54745729 314.00896792 394.58274937 317.88244057 C394.60486351 320.88021441 394.60324704 323.87763907 394.59498405 326.87546921 C394.59417049 328.30183923 394.60091879 329.72823647 394.61575508 331.15452957 C394.70036898 340.76946418 393.96326417 348.89300766 387.20948792 356.21572876 C379.21989281 363.784185 370.95779801 363.74946716 360.44743347 363.70690918 C358.95533661 363.71180072 357.46324354 363.71799174 355.9711569 363.72536707 C351.87885164 363.74175657 347.78673917 363.73945069 343.69441259 363.7339921 C339.27778284 363.73132067 334.86120433 363.74585587 330.44459534 363.75808716 C321.79470972 363.77913886 313.14489113 363.78368215 304.49498292 363.78189927 C297.46338093 363.78059146 290.43179985 363.78439675 283.4002018 363.79182434 C281.37446716 363.79392355 279.34873251 363.79602115 277.32299787 363.79811716 C275.81057591 363.79968245 275.81057591 363.79968245 274.26759998 363.80127937 C255.19916517 363.82018084 236.13076884 363.81913188 217.06232855 363.81231004 C199.62278043 363.80673519 182.18337924 363.82755773 164.74386545 363.86067051 C146.83288635 363.89441424 128.92197761 363.90957495 111.01096612 363.90495348 C100.95696028 363.90270941 90.90309023 363.90794276 80.84911156 363.93284607 C72.28927409 363.95386803 63.72964685 363.95744232 55.16980072 363.93854648 C50.80392293 363.929394 46.43843704 363.92823049 42.07258987 363.94890213 C38.07210198 363.96763406 34.07232633 363.96308437 30.07186536 363.94035631 C28.62843275 363.93617609 27.18494531 363.94035124 25.74157073 363.95395225 C16.2592212 364.0371855 8.2805479 363.21150603 1.06014985 356.55711508 C-6.31850732 348.76057485 -6.4704132 340.87946727 -6.4228363 330.58992004 C-6.42701181 329.18429298 -6.43249052 327.77866928 -6.43915612 326.37305182 C-6.45360033 322.51998718 -6.44936931 318.66713664 -6.4419893 314.81406033 C-6.43725758 310.65522007 -6.44976728 306.49642611 -6.46000671 302.33760071 C-6.47719797 294.19505492 -6.47803432 286.05258629 -6.47279381 277.91002706 C-6.46875272 271.2940871 -6.47019493 264.67816994 -6.47554207 258.06223106 C-6.47629049 257.12071156 -6.47703891 256.17919206 -6.47781001 255.20914167 C-6.47934147 253.29651533 -6.48087982 251.38388899 -6.48242498 249.47126266 C-6.49615034 231.53896491 -6.4907113 213.60671081 -6.47923977 195.67441406 C-6.46929973 179.25900736 -6.4822613 162.84371324 -6.50617396 146.4283239 C-6.53053661 129.57732632 -6.54018029 112.72638124 -6.53352123 95.87536639 C-6.53002368 86.41290332 -6.53229677 76.95052694 -6.54977226 67.48807716 C-6.56445851 59.43606255 -6.56517634 51.38419572 -6.54770135 43.33218411 C-6.53916076 39.22228152 -6.53711606 35.11264334 -6.55235291 31.00275421 C-6.56611882 27.24320766 -6.56154254 23.48415407 -6.54211367 19.72463664 C-6.53653015 17.71476697 -6.5506921 15.7048727 -6.56546777 13.69504958 C-6.55565348 12.50704779 -6.54583919 11.31904599 -6.5357275 10.09504414 C-6.53562016 9.06751823 -6.53551283 8.03999232 -6.53540224 6.98132926 C-5.83148891 3.22592785 -3.91644495 0.60137351 0 0 Z " fill="#000000" transform="translate(62.03515625,148.6875)"/>
<path d="M0 0 C0.67946743 -0.00679667 1.35893486 -0.01359334 2.05899221 -0.02059597 C4.31726342 -0.03946252 6.57498736 -0.0371381 8.83332825 -0.03465271 C10.46019685 -0.04363705 12.08705907 -0.05384685 13.71391296 -0.06518555 C18.12122281 -0.09162552 22.52835778 -0.09871659 26.93573928 -0.10063291 C29.69393641 -0.10276947 32.45208949 -0.10918206 35.21027565 -0.11712456 C44.84621107 -0.14486137 54.4820222 -0.15713256 64.11799622 -0.1547699 C73.07778153 -0.15296949 82.03702385 -0.18459202 90.99667186 -0.23200089 C98.70651663 -0.27133197 106.41618474 -0.28731716 114.12612897 -0.28540367 C118.72310672 -0.28464157 123.31960194 -0.29303472 127.91647911 -0.32493782 C132.24486129 -0.3541583 136.57230567 -0.35410033 140.9007225 -0.33238792 C142.48084585 -0.3292718 144.06102941 -0.33621109 145.64105034 -0.3544693 C155.40799013 -0.45993734 163.70841054 0.43168379 171.89900208 6.40113831 C177.40181784 12.82486312 179.27886188 17.84429316 179.16853333 26.22926331 C178.58041764 33.15027682 176.00884373 37.70546099 170.89900208 42.33863831 C165.87460063 46.48965747 162.52591076 47.65105948 155.92857361 47.66183472 C154.87624064 47.66757304 154.87624064 47.66757304 153.80264843 47.67342728 C151.45204033 47.68374536 149.10167705 47.67976744 146.75105286 47.67579651 C145.06563592 47.68014368 143.38022097 47.68532685 141.69480896 47.69128418 C137.11625435 47.70468573 132.53778223 47.7052515 127.95921183 47.70272088 C124.13713505 47.70165183 120.31507501 47.70653292 116.49300182 47.7113263 C107.4754905 47.72242575 98.45802083 47.7228566 89.44050598 47.71681213 C80.13830517 47.71077268 70.83625563 47.72308164 61.53408062 47.7443822 C53.5475506 47.7619976 45.56106873 47.76799961 37.57451999 47.76474446 C32.80457821 47.76293117 28.0347443 47.76557229 23.2648201 47.779459 C18.77830792 47.7920315 14.29203147 47.79009872 9.80552292 47.77704811 C8.1600054 47.77468142 6.51447132 47.77742035 4.86897278 47.78567123 C2.62017443 47.79613298 0.37216788 47.78804329 -1.87660217 47.77536011 C-3.76309384 47.77561172 -3.76309384 47.77561172 -5.68769646 47.77586842 C-11.75392667 47.10988589 -17.0453946 43.94602353 -21.10099792 39.40113831 C-25.3709079 33.10274091 -27.55067054 26.99129412 -26.10099792 19.40113831 C-23.82116837 12.61186615 -20.25756698 7.18707445 -14.10099792 3.40113831 C-9.15480759 0.98788367 -5.59057018 0.02323878 0 0 Z " fill="#040405" transform="translate(224.1009979248047,276.59886169433594)"/>
<path d="M0 0 C0.69928975 -0.00438225 1.39857951 -0.00876451 2.11905986 -0.01327956 C4.46803258 -0.02666019 6.81696779 -0.03284477 9.16596985 -0.03897095 C10.84799367 -0.04687254 12.53001579 -0.05514153 14.21203613 -0.06375122 C19.74134198 -0.08996634 25.27065538 -0.1052791 30.80000305 -0.11953735 C32.70390643 -0.12489739 34.60780975 -0.1302749 36.51171303 -0.13566971 C44.43221092 -0.15729835 52.35270678 -0.17603453 60.27322674 -0.1872921 C71.62136152 -0.20352779 82.96915372 -0.23669651 94.31715935 -0.29369295 C102.29774597 -0.3324083 110.27824101 -0.35192673 118.25891906 -0.35721266 C123.02458207 -0.36086414 127.78987964 -0.37286366 132.5554409 -0.4053154 C137.04121433 -0.43542385 141.52640175 -0.44169805 146.01225471 -0.42993164 C147.65534018 -0.42971113 149.29845305 -0.43799743 150.9414444 -0.45558548 C166.87359781 -0.61680305 166.87359781 -0.61680305 173.1632843 5.15390015 C173.83101868 5.75073608 174.49875305 6.34757202 175.1867218 6.9624939 C180.08955299 12.87139738 181.59797621 17.95029896 181.4132843 25.6265564 C180.75031309 32.32878095 178.36038878 36.80283594 173.1632843 41.15390015 C167.15671998 45.53368663 162.74634946 47.39948708 155.28933716 47.42805481 C154.27058259 47.43590983 154.27058259 47.43590983 153.23124713 47.44392353 C150.96219487 47.4588895 148.6933688 47.45962793 146.42427063 47.46029663 C144.79445517 47.46792056 143.1646433 47.47634846 141.53483582 47.48551941 C137.11104086 47.50745178 132.68731503 47.51626193 128.26347184 47.52134585 C125.49693564 47.52499176 122.73041748 47.53123313 119.96388817 47.53834724 C110.30435264 47.56284005 100.64487077 47.57589269 90.98530579 47.57943726 C81.99492634 47.58306953 73.00488891 47.61294318 64.01461393 47.65484184 C56.28617115 47.68959126 48.55784142 47.70498652 40.82932109 47.70568329 C36.21789685 47.7064747 31.60682089 47.71515013 26.99547768 47.74368095 C22.6540997 47.7699406 18.31335672 47.77202313 13.97193527 47.75602531 C12.38452324 47.75421691 10.79707404 47.7608463 9.20974159 47.77684402 C-0.6317808 47.86992924 -9.15749038 47.3732046 -16.73120403 40.41283321 C-21.35412024 35.51751335 -23.93541061 30.1002226 -24.3367157 23.34140015 C-24.07483649 16.44873946 -21.5831751 10.79935141 -16.60624695 6.00546265 C-10.95695365 1.48971434 -7.29342063 0.0323774 0 0 Z " fill="#040405" transform="translate(221.8367156982422,376.8460998535156)"/>
<path d="M0 0 C1.62202931 -0.00570863 3.2440546 -0.0126748 4.86607361 -0.02079773 C9.25455226 -0.03868955 13.64283052 -0.0375683 18.03133464 -0.03185534 C21.70173209 -0.02875781 25.37209138 -0.0348622 29.04248339 -0.04089409 C37.70446154 -0.05492457 46.36634104 -0.05339026 55.02832031 -0.04199219 C63.95001434 -0.03051144 72.87140773 -0.04458924 81.79306215 -0.07138866 C89.46720742 -0.09357351 97.14125851 -0.1001768 104.81543356 -0.09431225 C109.39261774 -0.09094825 113.96960922 -0.09332069 118.54676628 -0.11056328 C122.85202336 -0.1260749 127.15683638 -0.12203041 131.46207619 -0.10325813 C133.03699537 -0.09958393 134.61194776 -0.10264649 136.18683624 -0.11314392 C146.11032854 -0.17421115 153.24625825 0.87559477 161.74633789 6.09155273 C166.95270683 11.44254303 169.31437329 16.44053538 169.55883789 23.96655273 C169.18897604 32.11299704 167.02100137 36.7789851 161.05883789 42.27905273 C155.97263088 46.62710247 151.62187943 47.65311208 144.97053528 47.68493652 C144.27503136 47.69087877 143.57952744 47.69682101 142.86294764 47.70294333 C140.53862814 47.72024938 138.21451547 47.72332793 135.89013672 47.72631836 C134.22091231 47.73557965 132.55169211 47.74562963 130.88247681 47.75640869 C126.35125579 47.7826155 121.820094 47.79553876 117.28880906 47.80443001 C114.45526923 47.8102988 111.62174546 47.81850984 108.78821373 47.82743835 C99.91526295 47.85477886 91.04234901 47.87411614 82.16935903 47.88184214 C71.94077479 47.89079837 61.71272578 47.92587412 51.48430425 47.98384333 C43.56902729 48.02713918 35.65390056 48.04725402 27.7385065 48.04992437 C23.01523314 48.05201626 18.29246322 48.06373981 13.56931496 48.0995636 C9.12280839 48.13263354 4.67718071 48.13678526 0.23059464 48.11928558 C-1.39552866 48.11775047 -3.02170026 48.12635623 -4.64770317 48.14620209 C-14.01031393 48.25371503 -21.5466782 47.80306112 -29.00366211 41.40405273 C-34.19980614 35.85155276 -36.61794166 29.28164463 -36.37866211 21.57983398 C-35.19393317 14.70593793 -31.39155361 9.08904934 -26.14038086 4.65795898 C-17.71918638 -0.283912 -9.47536929 -0.03012107 0 0 Z " fill="#020203" transform="translate(234.003662109375,177.595947265625)"/>
<path d="M0 0 C1.01179565 -0.01064158 1.01179565 -0.01064158 2.04403162 -0.02149814 C4.29763942 -0.03905937 6.54951803 -0.02098565 8.80310059 -0.00291443 C10.42132858 -0.00805403 12.03955097 -0.01533562 13.65776062 -0.02459717 C18.04836689 -0.04311441 22.43836605 -0.0301708 26.82894707 -0.01050687 C31.42438336 0.00587838 36.01978117 -0.00293309 40.61523438 -0.00802612 C48.33241473 -0.01254722 56.04935273 0.00332373 63.76647949 0.03126526 C72.68764443 0.06331728 81.60837222 0.06330151 90.5295682 0.04605049 C99.11263795 0.03018488 107.69554748 0.03691917 116.27861023 0.0539875 C119.93084479 0.06085883 123.58295096 0.05982472 127.23518372 0.05244255 C131.53632492 0.04477949 135.83696887 0.05690622 140.13802528 0.08429146 C141.71622046 0.0911762 143.29446208 0.09127226 144.87265587 0.08407593 C147.0278815 0.07538108 149.18157255 0.09133471 151.33666992 0.11352539 C152.5423336 0.11633231 153.74799728 0.11913923 154.99019623 0.12203121 C158.8173346 0.7315503 160.49361333 1.85894647 163.16833496 4.62818909 C163.86823653 8.90536533 163.67175994 10.85627078 161.29333496 14.50318909 C157.80324278 17.99328126 155.61708658 17.75801914 150.77336121 17.77536011 C150.10956115 17.7790368 149.4457611 17.78271348 148.76184589 17.78650159 C146.52713595 17.79755585 144.29247247 17.80138519 142.05773926 17.80519104 C140.45966442 17.81145435 138.86159105 17.81810103 137.26351929 17.82510376 C132.91427223 17.84252512 128.56503617 17.8530685 124.21576285 17.86130929 C121.49970861 17.86645678 118.7836578 17.87253261 116.06760597 17.87882042 C107.57321792 17.89787521 99.07883858 17.91210603 90.58443326 17.92043239 C80.77246362 17.93020851 70.96071936 17.95653653 61.14882916 17.99693328 C53.56915362 18.02707107 45.98954277 18.04189901 38.40980846 18.0452134 C33.88070074 18.04756646 29.3518337 18.05656001 24.82279015 18.08167458 C20.56198311 18.10491972 16.30157585 18.10920302 12.04072189 18.09891319 C10.47701375 18.09841686 8.91328617 18.10476604 7.34963799 18.11846924 C5.21403118 18.13613743 3.07986699 18.12910896 0.94425964 18.11593628 C-0.25055181 18.11832463 -1.44536325 18.12071299 -2.67638111 18.12317371 C-6.46723792 17.5284837 -8.11697467 16.28641693 -10.83166504 13.62818909 C-12.27597359 10.73957199 -12.2085501 8.83171207 -11.83166504 5.62818909 C-8.18053004 0.99568043 -5.83283414 0.00283648 0 0 Z " fill="#768894" transform="translate(224.8316650390625,391.37181091308594)"/>
<path d="M0 0 C0.66224006 -0.00438225 1.32448013 -0.00876451 2.00678807 -0.01327956 C4.24226516 -0.02671275 6.47770279 -0.03285655 8.71321106 -0.03897095 C10.3095162 -0.04686852 11.90581954 -0.05513725 13.50212097 -0.06375122 C18.75972274 -0.09001669 24.01733265 -0.10528579 29.27497864 -0.11953735 C31.08296019 -0.12489564 32.89094168 -0.13027314 34.69892311 -0.13566971 C42.21959206 -0.15730725 49.74025882 -0.17604387 57.26095104 -0.1872921 C68.04723887 -0.20352878 78.83316626 -0.23668958 89.61931819 -0.29369295 C97.19813806 -0.33238249 104.77686151 -0.35192376 112.35577756 -0.35721266 C116.88443509 -0.36086821 121.41270861 -0.37291016 125.94125938 -0.4053154 C130.20375799 -0.43537794 134.46563991 -0.44171455 138.72822189 -0.42993164 C140.29151901 -0.42971073 141.85484457 -0.43803009 143.41804314 -0.45558548 C145.55580348 -0.47828341 147.69132889 -0.46998296 149.82910156 -0.45410156 C151.02429004 -0.45741171 152.21947851 -0.46072186 153.45088482 -0.46413231 C157.91718502 0.37713964 159.57158531 1.90971563 162.73200989 5.15390015 C163.41950989 8.65390015 163.41950989 8.65390015 162.73200989 12.15390015 C160.16086594 15.41039967 158.67120644 16.9689467 154.55107784 17.78031254 C153.34411534 17.78089885 152.13715284 17.78148516 150.89361572 17.78208923 C149.88076172 17.79273081 149.88076172 17.79273081 148.84744602 17.80358738 C146.59150485 17.82114858 144.33729108 17.80307497 142.08137512 17.78500366 C140.46152462 17.79014322 138.84167971 17.79742477 137.22184753 17.8066864 C132.82717649 17.82520277 128.43311202 17.81226117 124.03846622 17.7925961 C119.43989271 17.77621294 114.84135773 17.7850219 110.24276733 17.79011536 C102.52139085 17.79463623 94.80025663 17.77876575 87.07893372 17.75082397 C78.14979652 17.71876071 69.221096 17.71879218 60.29192775 17.73603874 C51.70351522 17.75189657 43.1152629 17.74517582 34.52685738 17.72810173 C30.87100527 17.72122605 27.2152814 17.72226893 23.55943108 17.72964668 C19.25583049 17.73730205 14.95272757 17.72520826 10.64921188 17.69779778 C9.06898412 17.69090536 7.48870995 17.69082516 5.90848351 17.69801331 C3.75290529 17.70668954 1.59886949 17.69078629 -0.55657959 17.66856384 C-2.3664578 17.66435346 -2.3664578 17.66435346 -4.21289921 17.66005802 C-7.89348027 17.0502709 -9.04528358 16.09963097 -11.26799011 13.15390015 C-12.33049011 9.71640015 -12.33049011 9.71640015 -12.26799011 6.15390015 C-9.89299011 3.27890015 -9.89299011 3.27890015 -7.26799011 1.15390015 C-5.42913252 -0.68495745 -2.46466492 0.0115091 0 0 Z " fill="#768894" transform="translate(225.2679901123047,291.8460998535156)"/>
<path d="M0 0 C1.00060334 -0.00724325 1.00060334 -0.00724325 2.0214209 -0.01463282 C4.24954112 -0.02587603 6.47650648 -0.00860744 8.70457458 0.00863647 C10.30471609 0.00648992 11.90485607 0.00261119 13.50498962 -0.00286865 C17.84588661 -0.01255654 22.18637186 0.0027337 26.52721906 0.02303743 C31.06972611 0.0406125 35.61222052 0.03708328 40.15475464 0.03631592 C47.78194565 0.0381885 55.40897743 0.05554755 63.03611755 0.08285522 C71.85609714 0.11431683 80.67590242 0.124851 89.49593407 0.12338412 C97.97966403 0.12216369 106.4633372 0.13237264 114.94705009 0.14896774 C118.55820598 0.15603118 122.16934177 0.15969392 125.78050423 0.16075516 C130.03144591 0.16276336 134.28224112 0.17496744 138.53313446 0.19508743 C140.09401744 0.20093166 141.65491728 0.20338933 143.21581078 0.20223236 C145.34471344 0.20125146 147.47320533 0.21255655 149.60205078 0.22705078 C150.79388757 0.23040247 151.98572435 0.23375416 153.21367741 0.23720741 C156.17346727 0.48902557 157.80689312 0.83056415 160.23753357 2.49447632 C162.73785011 6.24495114 162.77356911 8.05303898 162.23753357 12.49447632 C159.68109588 15.76427345 158.17727656 17.3076007 154.05939484 18.12647533 C152.85373116 18.12965928 151.64806747 18.13284323 150.40586853 18.13612366 C149.7313381 18.14462918 149.05680766 18.1531347 148.36183691 18.16189796 C146.10827772 18.18413107 143.85637563 18.17074396 141.60276794 18.15731812 C139.98453592 18.16573297 138.36631371 18.17625883 136.74810791 18.18873596 C132.35753862 18.21579422 127.96753732 18.21108103 123.57692146 18.19903541 C119.9112449 18.19190557 116.24567349 18.20040224 112.58000517 18.2089408 C103.93303687 18.22889533 95.28634504 18.22332069 86.63938904 18.20126343 C77.71809558 18.17889308 68.79752547 18.19650568 59.87630033 18.23431271 C52.21583143 18.26553692 44.55558658 18.27346575 36.89506197 18.26235896 C32.32011431 18.25586866 27.74558422 18.25788948 23.17068481 18.28168297 C18.86937548 18.30291458 14.569088 18.29498495 10.26784325 18.26458931 C8.68964034 18.25825491 7.11135831 18.26213978 5.53321266 18.27700043 C3.37736778 18.2956553 1.22487571 18.27730687 -0.93080139 18.24964905 C-2.13646507 18.24868571 -3.34212875 18.24772238 -4.5843277 18.24672985 C-9.138147 17.16885788 -10.22100883 15.37764121 -12.76246643 11.49447632 C-12.88746643 7.86947632 -12.88746643 7.86947632 -11.76246643 4.49447632 C-7.95595065 0.63058009 -5.34886441 -0.0048882 0 0 Z " fill="#788A95" transform="translate(225.76246643066406,192.50552368164063)"/>
<path d="M0 0 C4.13868677 1.82872206 6.47705135 4.27816361 9 8 C9.50120544 10.99058533 9.50120544 10.99058533 9.50170898 14.34741211 C9.51108994 15.60899643 9.52047089 16.87058075 9.53013611 18.1703949 C9.51965627 19.53938476 9.50828705 20.90836807 9.49609375 22.27734375 C9.49624885 23.69072036 9.49773971 25.1040974 9.50050354 26.51747131 C9.50188581 29.4756253 9.48936079 32.43329344 9.46655273 35.39135742 C9.43819399 39.17201493 9.44090032 42.95186407 9.45364285 46.73258114 C9.46061868 49.65038381 9.45278875 52.56800165 9.44038582 55.48578072 C9.43588792 56.87914889 9.43551992 58.27253702 9.43945122 59.66590691 C9.44238114 61.61836918 9.42363322 63.57082707 9.40405273 65.52319336 C9.39864975 66.63174179 9.39324677 67.74029022 9.38768005 68.88243103 C8.83631536 73.31628683 7.3156816 76.70620084 4.12109375 79.84765625 C0.25243987 81.94941112 -3.73158656 81.62262109 -8 81 C-12.15683592 78.66177979 -13.55552226 76.44828684 -15 72 C-15.26069641 69.04064941 -15.26069641 69.04064941 -15.2746582 65.72851562 C-15.28419022 64.48372437 -15.29372223 63.23893311 -15.30354309 61.9564209 C-15.30328167 60.60636364 -15.30234466 59.25630637 -15.30078125 57.90625 C-15.30467138 56.51289747 -15.30900671 55.11954612 -15.31376648 53.72619629 C-15.32121349 50.81107736 -15.32094807 47.89607958 -15.31567383 44.98095703 C-15.30987488 41.25182404 -15.32682726 37.52318704 -15.3500185 33.79413605 C-15.36477287 30.91844807 -15.36562536 28.04287916 -15.36250877 25.16716003 C-15.36302093 23.79248572 -15.36823879 22.41780455 -15.37832069 21.04316711 C-15.39070218 19.11931167 -15.38194128 17.19535558 -15.37231445 15.27148438 C-15.37294388 14.17848022 -15.3735733 13.08547607 -15.3742218 11.95935059 C-14.80548315 7.46175835 -12.85936223 4.88323341 -9.75 1.6875 C-6.19526959 -0.49381184 -4.11032181 -0.51379023 0 0 Z " fill="#0590F7" transform="translate(369,15)"/>
<path d="M0 0 C3.18459646 1.51992104 5.73579966 3.28295959 8 6 C9.07974661 9.23923984 9.13987006 11.62045523 9.16113281 15.02856445 C9.17074036 16.27027908 9.1803479 17.51199371 9.19024658 18.79133606 C9.19509506 20.14864925 9.19937377 21.50596458 9.203125 22.86328125 C9.20887963 24.25709535 9.21463733 25.65090944 9.22039795 27.04472351 C9.23089962 29.96756356 9.23674752 32.89037617 9.24023438 35.81323242 C9.24571296 39.54901772 9.26973046 43.28443741 9.29820633 47.02010822 C9.31687986 49.90011129 9.32204083 52.78002719 9.32357025 55.66008568 C9.32658743 57.03673485 9.33458432 58.41338283 9.34775543 59.78997231 C9.36491028 61.72099149 9.36107729 63.65216212 9.35644531 65.58325195 C9.36009094 66.6800679 9.36373657 67.77688385 9.36749268 68.90693665 C8.84128817 73.33582453 7.30823245 76.71352609 4.12109375 79.84765625 C0.25243987 81.94941112 -3.73158656 81.62262109 -8 81 C-12.1583729 78.66091525 -13.55269984 76.44823253 -15 72 C-15.28088379 69.0161438 -15.28088379 69.0161438 -15.32226562 65.66845703 C-15.34148071 64.4101004 -15.3606958 63.15174377 -15.38049316 61.85525513 C-15.39018962 60.48944835 -15.39874716 59.12363309 -15.40625 57.7578125 C-15.41190475 57.06505093 -15.41755951 56.37228935 -15.42338562 55.658535 C-15.45329133 51.99353273 -15.47180006 48.32868635 -15.48046875 44.66357422 C-15.49143733 40.89160052 -15.53950694 37.12107119 -15.59641266 33.34955025 C-15.63378829 30.43602411 -15.64408282 27.52284208 -15.6471405 24.60909653 C-15.65316574 23.21925827 -15.66912923 21.82942406 -15.69551086 20.43982315 C-15.91054279 8.24469458 -15.91054279 8.24469458 -12.08398438 3.65576172 C-8.21329438 -0.0640272 -5.38640547 -0.36518003 0 0 Z " fill="#25A2F9" transform="translate(259,15)"/>
<path d="M0 0 C3.18459646 1.51992104 5.73579966 3.28295959 8 6 C9.07974661 9.23923984 9.13987006 11.62045523 9.16113281 15.02856445 C9.17074036 16.27027908 9.1803479 17.51199371 9.19024658 18.79133606 C9.19509506 20.14864925 9.19937377 21.50596458 9.203125 22.86328125 C9.20887963 24.25709535 9.21463733 25.65090944 9.22039795 27.04472351 C9.23089962 29.96756356 9.23674752 32.89037617 9.24023438 35.81323242 C9.24571296 39.54901772 9.26973046 43.28443741 9.29820633 47.02010822 C9.31687986 49.90011129 9.32204083 52.78002719 9.32357025 55.66008568 C9.32658743 57.03673485 9.33458432 58.41338283 9.34775543 59.78997231 C9.36491028 61.72099149 9.36107729 63.65216212 9.35644531 65.58325195 C9.36009094 66.6800679 9.36373657 67.77688385 9.36749268 68.90693665 C8.84128817 73.33582453 7.30823245 76.71352609 4.12109375 79.84765625 C0.25243987 81.94941112 -3.73158656 81.62262109 -8 81 C-12.1583729 78.66091525 -13.55269984 76.44823253 -15 72 C-15.28088379 69.0161438 -15.28088379 69.0161438 -15.32226562 65.66845703 C-15.34148071 64.4101004 -15.3606958 63.15174377 -15.38049316 61.85525513 C-15.39018962 60.48944835 -15.39874716 59.12363309 -15.40625 57.7578125 C-15.41190475 57.06505093 -15.41755951 56.37228935 -15.42338562 55.658535 C-15.45329133 51.99353273 -15.47180006 48.32868635 -15.48046875 44.66357422 C-15.49143733 40.89160052 -15.53950694 37.12107119 -15.59641266 33.34955025 C-15.63378829 30.43602411 -15.64408282 27.52284208 -15.6471405 24.60909653 C-15.65316574 23.21925827 -15.66912923 21.82942406 -15.69551086 20.43982315 C-15.91054279 8.24469458 -15.91054279 8.24469458 -12.08398438 3.65576172 C-8.21329438 -0.0640272 -5.38640547 -0.36518003 0 0 Z " fill="#25A2F9" transform="translate(149,15)"/>
<path d="M0 0 C3.93371155 1.11170109 5.52788556 2.46964005 7.875 5.8125 C7.88297498 12.40780701 5.15008245 15.51029569 0.875 20.0625 C-0.32152185 21.38692928 -1.51682961 22.71245638 -2.7109375 24.0390625 C-3.29713867 24.68262695 -3.88333984 25.32619141 -4.48730469 25.98925781 C-6.65845684 28.40639619 -8.71062858 30.90867944 -10.75 33.4375 C-14.44848248 38.00302599 -18.22705829 42.49251723 -22.03295898 46.96826172 C-25.00181501 50.46635992 -27.92134514 53.99956216 -30.8125 57.5625 C-31.53566406 58.44035156 -32.25882813 59.31820312 -33.00390625 60.22265625 C-34.42921469 61.96294998 -35.83272839 63.72130262 -37.21484375 65.49609375 C-42.12442358 71.53647892 -42.12442358 71.53647892 -46.75 72.8125 C-54.42611035 70.53809693 -58.57185093 61.31091944 -62.5 54.8125 C-63.31791016 53.51699219 -63.31791016 53.51699219 -64.15234375 52.1953125 C-67.19503506 47.17754087 -69.07726131 43.71652011 -68.125 37.8125 C-65.73686047 35.15143024 -64.10946115 34.03400376 -60.625 33.25 C-56.97207165 34.07190888 -55.26759378 35.89403661 -53.125 38.8125 C-50.67326767 42.74857967 -48.3702205 46.7555742 -46.125 50.8125 C-42.49238772 47.27135637 -39.13047227 43.58001432 -35.875 39.6875 C-35.39611328 39.11837891 -34.91722656 38.54925781 -34.42382812 37.96289062 C-30.72302944 33.55436948 -27.080583 29.09937161 -23.4453125 24.63671875 C-19.91066258 20.33444284 -16.32012621 16.08139134 -12.69921875 11.8515625 C-11.1287512 9.99750521 -9.58270314 8.12192694 -8.08203125 6.2109375 C-3.92859533 1.02143479 -3.92859533 1.02143479 0 0 Z " fill="#030404" transform="translate(184.125,348.1875)"/>
<path d="M0 0 C3.67970152 0.13899469 5.61189774 0.52086108 8.46484375 2.88671875 C10.29813933 6.55330992 10.03497128 7.84471521 8.90234375 11.76171875 C7.27185175 14.22085754 5.3356895 16.34449879 3.33984375 18.51171875 C2.23439324 19.75406715 1.13022876 20.99756104 0.02734375 22.2421875 C-0.51148438 22.84466309 -1.0503125 23.44713867 -1.60546875 24.06787109 C-3.53636009 26.25971077 -5.35585286 28.5274909 -7.16015625 30.82421875 C-10.20975281 34.68366667 -13.34866395 38.45304067 -16.53515625 42.19921875 C-22.24126207 48.91032154 -27.88180144 55.6729086 -33.328125 62.59765625 C-34.03582031 63.49742187 -34.74351562 64.3971875 -35.47265625 65.32421875 C-36.41238281 66.53271484 -36.41238281 66.53271484 -37.37109375 67.765625 C-39.89658669 70.6853691 -41.46941412 71.71339243 -45.34765625 72.01171875 C-51.21618742 70.05554169 -53.00646708 65.91777341 -56.09765625 60.76171875 C-56.98474456 59.34967415 -57.8728312 57.93825642 -58.76171875 56.52734375 C-59.6886598 55.02365025 -60.61313786 53.51843569 -61.53515625 52.01171875 C-61.98479736 51.29113281 -62.43443848 50.57054687 -62.89770508 49.828125 C-65.3690955 45.67829852 -66.82155733 42.74038538 -66.09765625 37.76171875 C-63.93531311 34.47495718 -62.57187415 33.86710051 -58.72265625 33.01171875 C-54.07307804 33.97370045 -53.06521892 35.61700075 -50.51953125 39.44921875 C-50.0503125 40.21234375 -49.58109375 40.97546875 -49.09765625 41.76171875 C-48.6078125 42.52484375 -48.11796875 43.28796875 -47.61328125 44.07421875 C-46.41675246 45.95639886 -45.24658049 47.85023418 -44.09765625 49.76171875 C-40.107242 45.87495162 -36.42104818 41.79271016 -32.78515625 37.57421875 C-32.20975098 36.9085791 -31.6343457 36.24293945 -31.04150391 35.55712891 C-27.30423547 31.21466884 -23.67798933 26.80187624 -20.1328125 22.30078125 C-16.32600925 17.5514106 -12.36545673 12.92634494 -8.39672852 8.31176758 C-7.50549997 7.24835656 -6.63974428 6.16322806 -5.79663086 5.0612793 C-2.60637069 0.94644746 -2.60637069 0.94644746 0 0 Z " fill="#030404" transform="translate(182.09765625,249.23828125)"/>
<path d="M0 0 C3.67970152 0.13899469 5.61189774 0.52086108 8.46484375 2.88671875 C10.29813933 6.55330992 10.03497128 7.84471521 8.90234375 11.76171875 C7.27185175 14.22085754 5.3356895 16.34449879 3.33984375 18.51171875 C2.23439324 19.75406715 1.13022876 20.99756104 0.02734375 22.2421875 C-0.51148438 22.84466309 -1.0503125 23.44713867 -1.60546875 24.06787109 C-3.53636009 26.25971077 -5.35585286 28.5274909 -7.16015625 30.82421875 C-10.20975281 34.68366667 -13.34866395 38.45304067 -16.53515625 42.19921875 C-22.24126207 48.91032154 -27.88180144 55.6729086 -33.328125 62.59765625 C-34.03582031 63.49742187 -34.74351562 64.3971875 -35.47265625 65.32421875 C-36.41238281 66.53271484 -36.41238281 66.53271484 -37.37109375 67.765625 C-39.89658669 70.6853691 -41.46941412 71.71339243 -45.34765625 72.01171875 C-51.21618742 70.05554169 -53.00646708 65.91777341 -56.09765625 60.76171875 C-56.98474456 59.34967415 -57.8728312 57.93825642 -58.76171875 56.52734375 C-59.6886598 55.02365025 -60.61313786 53.51843569 -61.53515625 52.01171875 C-61.98479736 51.29113281 -62.43443848 50.57054687 -62.89770508 49.828125 C-65.3690955 45.67829852 -66.82155733 42.74038538 -66.09765625 37.76171875 C-63.93531311 34.47495718 -62.57187415 33.86710051 -58.72265625 33.01171875 C-54.07307804 33.97370045 -53.06521892 35.61700075 -50.51953125 39.44921875 C-50.0503125 40.21234375 -49.58109375 40.97546875 -49.09765625 41.76171875 C-48.6078125 42.52484375 -48.11796875 43.28796875 -47.61328125 44.07421875 C-46.41675246 45.95639886 -45.24658049 47.85023418 -44.09765625 49.76171875 C-40.107242 45.87495162 -36.42104818 41.79271016 -32.78515625 37.57421875 C-32.20975098 36.9085791 -31.6343457 36.24293945 -31.04150391 35.55712891 C-27.30423547 31.21466884 -23.67798933 26.80187624 -20.1328125 22.30078125 C-16.32600925 17.5514106 -12.36545673 12.92634494 -8.39672852 8.31176758 C-7.50549997 7.24835656 -6.63974428 6.16322806 -5.79663086 5.0612793 C-2.60637069 0.94644746 -2.60637069 0.94644746 0 0 Z " fill="#030404" transform="translate(182.09765625,150.23828125)"/>
<path d="M0 0 C0.66 0 1.32 0 2 0 C4.23320118 3.58581258 4.25327652 6.55057004 4.25878906 10.72460938 C4.2622937 11.39176468 4.26579834 12.05891998 4.26940918 12.74629211 C4.27819187 14.94555145 4.27238975 17.14448755 4.265625 19.34375 C4.26697265 20.87544822 4.26891402 22.40714602 4.27142334 23.93884277 C4.2743699 27.14660725 4.27009204 30.35426022 4.26074219 33.56201172 C4.24934787 37.67118963 4.25590985 41.78010627 4.26788712 45.8892746 C4.27511836 49.05143193 4.27281198 52.21352744 4.26763153 55.37568665 C4.26629853 56.89073213 4.2679305 58.40578324 4.27259064 59.92082214 C4.27767672 62.03916261 4.26991677 64.1570815 4.25878906 66.27539062 C4.25640228 68.08263611 4.25640228 68.08263611 4.25396729 69.9263916 C4.01151534 72.86063698 3.53876242 74.52923576 2 77 C0.1875 76.875 0.1875 76.875 -2 76 C-4.57818101 71.75388417 -5.37738694 68.54917486 -5.38818359 63.61499023 C-5.39764008 62.37027451 -5.40709656 61.12555878 -5.4168396 59.84312439 C-5.41146996 58.49827757 -5.40531703 57.15343369 -5.3984375 55.80859375 C-5.40046075 54.4166702 -5.40337428 53.02474769 -5.40713501 51.63282776 C-5.41154513 48.72362113 -5.40516907 45.81469184 -5.39111328 42.90551758 C-5.37400578 39.18422898 -5.38388015 35.46358882 -5.40183067 31.74232388 C-5.41269067 28.87090704 -5.40921238 25.99964304 -5.4014473 23.12822151 C-5.39945222 21.7563475 -5.40188016 20.38445942 -5.40888596 19.01260185 C-5.41653783 17.09360916 -5.40279947 15.17456752 -5.38818359 13.25561523 C-5.38579681 12.16562729 -5.38341003 11.07563934 -5.38095093 9.95262146 C-4.82417749 5.63725931 -3.03511747 3.03511747 0 0 Z " fill="#24A1F7" transform="translate(359,17)"/>
</svg>
